<svg width="16" height="14" viewBox="0 0 16 14" fill="none" xmlns="http://www.w3.org/2000/svg">
<g clip-path="url(#clip0_2006_25639)">
<path fill-rule="evenodd" clip-rule="evenodd" d="M5.032 13.6039C11.07 13.6039 14.372 8.61386 14.372 4.28686C14.372 4.14486 14.372 4.00286 14.362 3.86286C15.0045 3.39976 15.5591 2.82577 16 2.16786C15.401 2.43281 14.7655 2.60641 14.115 2.68286C14.7995 2.27393 15.3123 1.6304 15.558 0.871858C14.914 1.25286 14.208 1.52186 13.474 1.66686C12.876 1.03349 12.0515 0.66292 11.1808 0.636305C10.3102 0.609689 9.46452 0.929201 8.829 1.52486C8.41029 1.91738 8.10212 2.41308 7.93538 2.96226C7.76864 3.51144 7.7492 4.0948 7.879 4.65386C6.5747 4.58862 5.29862 4.25033 4.1333 3.66087C2.96798 3.0714 1.93937 2.24389 1.114 1.23186C0.694027 1.95276 0.565307 2.80687 0.75416 3.61953C0.943012 4.43219 1.43517 5.14202 2.13 5.60386C1.60767 5.58843 1.09669 5.44783 0.64 5.19386V5.23586C0.64114 5.9927 0.904056 6.72584 1.38415 7.31092C1.86424 7.896 2.53195 8.29698 3.274 8.44586C2.79 8.57686 2.284 8.59586 1.792 8.50086C2.00234 9.15222 2.41089 9.72162 2.96057 10.1295C3.51026 10.5374 4.17363 10.7633 4.858 10.7759C3.48235 11.8538 1.73515 12.3419 0 12.1329C1.50208 13.0942 3.24861 13.6041 5.032 13.6019" fill="#02060C" fill-opacity="0.75"/>
</g>
<defs>
<clipPath id="clip0_2006_25639">
<rect width="16" height="14" fill="white"/>
</clipPath>
</defs>
</svg>
