<svg width="16" height="17" viewBox="0 0 16 17" fill="none" xmlns="http://www.w3.org/2000/svg">
<path d="M1.35198 5.29156C0.933199 5.65162 0.8856 6.283 1.24566 6.70177L6.50708 12.8212L6.53579 12.8547C6.68593 13.0295 6.85971 13.2318 7.03105 13.3822C7.23461 13.5608 7.56353 13.7843 8.02359 13.7843C8.48366 13.7843 8.81257 13.5608 9.01614 13.3822C9.18749 13.2318 9.36127 13.0295 9.5114 12.8547L9.54012 12.8212L14.7539 6.75723C15.114 6.33846 15.0664 5.70709 14.6476 5.34702C14.2289 4.98696 13.5975 5.03455 13.2374 5.45332L8.02361 11.5173L2.76219 5.39788C2.40213 4.9791 1.77076 4.9315 1.35198 5.29156Z" fill="#FF5200" fill-opacity="0.92"/>
</svg>
