<svg width="16" height="17" viewBox="0 0 16 17" fill="none" xmlns="http://www.w3.org/2000/svg">
<g clip-path="url(#clip0_2006_25648)">
<path fill-rule="evenodd" clip-rule="evenodd" d="M1.35273 1.41523C0.439727 2.33923 0.123727 3.48723 0.0647267 4.79323C0.0287267 5.60823 -0.185273 11.7662 0.434727 13.3802C0.635846 13.914 0.947198 14.3995 1.34849 14.8049C1.74978 15.2103 2.232 15.5267 2.76373 15.7332C3.26973 15.9332 3.84773 16.0682 4.69573 16.1072C11.7837 16.4322 14.4117 16.2552 15.5197 13.3802C15.7167 12.8692 15.8517 12.2842 15.8897 11.4272C16.2127 4.22623 15.8367 2.66523 14.6007 1.41523C13.6207 0.424235 12.4697 -0.249765 4.69673 0.113235C3.39373 0.173235 2.26473 0.495235 1.35273 1.41523ZM3.28273 14.3822C2.93711 14.249 2.62366 14.044 2.36304 13.7808C2.10242 13.5176 1.90054 13.2021 1.77073 12.8552C1.29773 11.6292 1.45473 5.80123 1.49673 4.85823C1.53873 3.93423 1.72273 3.09023 2.36673 2.43823C3.16273 1.63423 4.19073 1.24023 11.1937 1.56023C12.1077 1.60223 12.9427 1.78823 13.5877 2.43823C14.3837 3.24323 14.7777 4.29323 14.4567 11.3612C14.4217 12.1462 14.2917 12.5712 14.1827 12.8552C13.4627 14.7262 11.8047 14.9862 4.75973 14.6592C3.98373 14.6232 3.56373 14.4922 3.28273 14.3822ZM12.2267 4.78023C12.4814 4.77891 12.7252 4.67653 12.9044 4.49559C13.0837 4.31464 13.1838 4.06994 13.1827 3.81523C13.1834 3.68903 13.1592 3.56394 13.1115 3.44709C13.0638 3.33025 12.9936 3.22394 12.9048 3.13424C12.816 3.04454 12.7105 2.9732 12.5941 2.9243C12.4778 2.8754 12.3529 2.84989 12.2267 2.84923C12.1006 2.84989 11.9758 2.8754 11.8595 2.92432C11.7432 2.97323 11.6377 3.04458 11.549 3.1343C11.4603 3.22401 11.3902 3.33033 11.3426 3.44717C11.295 3.56401 11.2709 3.68908 11.2717 3.81523C11.2711 3.9413 11.2952 4.06627 11.3429 4.18299C11.3905 4.29972 11.4607 4.40592 11.5494 4.49553C11.638 4.58513 11.7435 4.6564 11.8597 4.70525C11.976 4.7541 12.1007 4.77958 12.2267 4.78023ZM7.97673 12.2412C10.2347 12.2412 12.0647 10.3912 12.0647 8.10923C12.0647 5.82823 10.2347 3.97923 7.97673 3.97923C5.71973 3.97923 3.88973 5.82823 3.88973 8.10923C3.88973 10.3912 5.71973 12.2412 7.97673 12.2412ZM7.97673 5.42823C9.44273 5.42823 10.6307 6.62923 10.6307 8.11023C10.6307 9.59023 9.44273 10.7922 7.97673 10.7922C6.51173 10.7922 5.32373 9.59123 5.32373 8.11023C5.32373 6.63023 6.51073 5.42823 7.97673 5.42823Z" fill="#02060C" fill-opacity="0.75"/>
</g>
<defs>
<clipPath id="clip0_2006_25648">
<rect width="16" height="17" fill="white"/>
</clipPath>
</defs>
</svg>
