<svg width="22" height="22" viewBox="0 0 22 22" fill="none" xmlns="http://www.w3.org/2000/svg">
<path d="M14.6726 1.46094C14.6726 1.84797 14.5371 2.17084 14.2662 2.42955C13.9932 2.70047 13.6704 2.83594 13.2976 2.83594C12.9126 2.83594 12.5907 2.7076 12.332 2.45094C12.0591 2.17797 11.9226 1.84797 11.9226 1.46094C11.9226 1.08816 12.0519 0.766308 12.3106 0.495382C12.5836 0.222419 12.9126 0.0859375 13.2976 0.0859375C13.6704 0.0859375 13.9932 0.222419 14.2662 0.495382C14.5371 0.766308 14.6726 1.08816 14.6726 1.46094ZM9.62481 6.50871C10.0118 6.50871 10.3337 6.37325 10.5904 6.10233C10.8633 5.82936 10.9998 5.50649 10.9998 5.13371C10.9998 4.74871 10.8705 4.42686 10.6118 4.16816C10.3408 3.8952 10.0118 3.75872 9.62481 3.75872C9.23777 3.75872 8.91592 3.88807 8.65925 4.14677C8.38629 4.41973 8.24981 4.74871 8.24981 5.13371C8.24981 5.50649 8.37916 5.82936 8.63787 6.10233C8.90879 6.37325 9.23777 6.50871 9.62481 6.50871ZM20.6248 9.43288H6.4012L5.04759 4.55622C4.97629 4.31177 4.8337 4.13251 4.61981 4.01844C4.38962 3.90436 4.1462 3.88297 3.88953 3.95427C3.63083 4.01131 3.43731 4.14677 3.30898 4.36066C3.16638 4.57659 3.12361 4.80575 3.18064 5.04816L4.72675 9.43288H1.37481C1.27499 9.43288 1.18231 9.45427 1.09675 9.49705C1.00916 9.53983 0.929716 9.58973 0.85842 9.64677C0.787124 9.71807 0.737216 9.79649 0.708698 9.88205C0.66592 9.9839 0.644531 10.0847 0.644531 10.1845C0.644531 11.144 0.708698 12.0464 0.837031 12.8918C0.981661 13.7371 1.18231 14.5245 1.43898 15.2537C1.69768 15.9993 2.0124 16.6796 2.38314 17.2948C2.75592 17.912 3.18574 18.4641 3.67259 18.9509C4.14518 19.452 4.66157 19.888 5.22175 20.2587C5.7799 20.6315 6.36657 20.9401 6.98175 21.1845C7.61324 21.427 8.26509 21.6062 8.93731 21.7223C9.60953 21.8507 10.297 21.9148 10.9998 21.9148C11.7026 21.9148 12.3901 21.8507 13.0623 21.7223C13.7345 21.6062 14.3793 21.427 14.9965 21.1845C15.6259 20.9401 16.2197 20.6315 16.7779 20.2587C17.3381 19.888 17.8544 19.452 18.327 18.9509C18.8139 18.4641 19.2437 17.912 19.6165 17.2948C19.9872 16.6796 20.3019 16.0064 20.5606 15.2751C20.8173 14.5316 21.018 13.7371 21.1626 12.8918C21.2909 12.0464 21.3551 11.144 21.3551 10.1845C21.3551 10.0847 21.3408 9.99103 21.3123 9.90344C21.2695 9.80362 21.2125 9.71807 21.1412 9.64677C21.0699 9.58973 20.9905 9.53983 20.9029 9.49705C20.8173 9.45427 20.7246 9.43288 20.6248 9.43288ZM15.1248 7.43455C15.5118 7.43455 15.8337 7.29807 16.0904 7.0251C16.3633 6.75418 16.4998 6.43233 16.4998 6.05955C16.4998 5.67251 16.3705 5.34964 16.1118 5.09094C15.8408 4.82001 15.5118 4.68455 15.1248 4.68455C14.7378 4.68455 14.4159 4.81288 14.1593 5.06955C13.8863 5.34251 13.7498 5.67251 13.7498 6.05955C13.7498 6.43233 13.8792 6.75418 14.1379 7.0251C14.4088 7.29807 14.7378 7.43455 15.1248 7.43455Z" fill="#36393E"/>
</svg>
