<svg width="22" height="22" viewBox="0 0 22 22" fill="none" xmlns="http://www.w3.org/2000/svg">
<path d="M15.0822 16.1795L17.2731 19.9593C17.4014 20.1752 17.4371 20.4043 17.38 20.6468C17.3087 20.8912 17.1661 21.0776 16.9522 21.2059C16.938 21.2059 16.9309 21.2059 16.9309 21.2059C16.9166 21.2202 16.9023 21.2273 16.8881 21.2273C16.6864 21.3271 16.4786 21.3414 16.2647 21.2701C16.0346 21.1845 15.8696 21.0409 15.7697 20.8393L13.8356 16.757C12.8619 17.1155 11.8668 17.2948 10.8503 17.2948C9.84808 17.2805 8.88151 17.1084 7.95058 16.7784C7.01965 16.4362 6.16002 15.9351 5.37169 15.2751C4.59762 14.6171 3.94576 13.8227 3.41614 12.8917C2.85799 11.861 2.52188 10.7865 2.4078 9.66814C2.29169 8.55184 2.38438 7.47018 2.68586 6.42314C2.98734 5.36388 3.48132 4.39018 4.1678 3.50203C4.85632 2.59962 5.71595 1.86221 6.74669 1.28981C7.77743 0.731658 8.8591 0.394528 9.99169 0.278417C11.108 0.164343 12.1886 0.258047 13.2336 0.559528C14.2807 0.858973 15.2554 1.35295 16.1578 2.04147C17.0439 2.72795 17.7742 3.58758 18.3486 4.62036C18.921 5.6511 19.2643 6.72462 19.3784 7.84092C19.4782 8.95925 19.3855 10.0409 19.1003 11.0859C18.7988 12.1309 18.312 13.0975 17.6397 13.9856C16.9512 14.8738 16.0987 15.6051 15.0822 16.1795ZM14.352 15.0184C15.2259 14.5458 15.949 13.9296 16.5214 13.1698C17.0938 12.4263 17.5022 11.6176 17.7467 10.7437C18.0034 9.85555 18.0889 8.93888 18.0034 7.99369C17.9035 7.06277 17.6173 6.16036 17.1447 5.28647C16.6722 4.42684 16.056 3.71082 15.2961 3.13842C14.5526 2.54971 13.7439 2.13416 12.87 1.89175C11.9819 1.63305 11.0652 1.54647 10.12 1.63203C9.1891 1.73388 8.28669 2.0211 7.4128 2.49369C6.55317 2.98055 5.83715 3.59573 5.26475 4.33925C4.67604 5.08481 4.26049 5.89453 4.01808 6.76842C3.75938 7.65656 3.6728 8.57323 3.75836 9.51842C3.86021 10.4636 4.14743 11.366 4.62002 12.2256C5.10688 13.0995 5.72206 13.8227 6.46558 14.3951C7.21114 14.9675 8.02086 15.383 8.89475 15.6417C9.78289 15.8984 10.6996 15.9768 11.6447 15.877C12.5899 15.7772 13.4923 15.491 14.352 15.0184Z" fill="#93959F"/>
</svg>
