<svg width="20" height="20" viewBox="0 0 20 20" fill="none" xmlns="http://www.w3.org/2000/svg">
<g clip-path="url(#clip0_2006_24771)">
<path d="M2.0825 9.36465H19.9994V10.6753L19.8994 10.679H2.08312L1.98312 10.579V9.46527L2.08312 9.36527L2.0825 9.36465ZM0.695625 9.3659L6.995 3.06652L7.07062 2.99902L7.98625 3.9159L7.92312 3.99527L1.62375 10.2946H1.4825L0.695 9.50715L0.695625 9.3659ZM7.92375 16.0471L7.99125 16.1203L7.07375 17.0478L6.995 16.9759L0.695625 10.6765V10.5353L1.48312 9.74777H1.62437L7.92375 16.0471ZM2.04187 8.0434L2.21187 8.1159L2.19812 11.944L2.02812 12.0153L0 10.0278L0.069375 9.95777L2.0425 8.04402L2.04187 8.0434Z" fill="#3D4152" stroke="#282C3F" stroke-width="0.5625"/>
</g>
<defs>
<clipPath id="clip0_2006_24771">
<rect width="20" height="20" fill="white"/>
</clipPath>
</defs>
</svg>
