<svg width="16" height="17" viewBox="0 0 16 17" fill="none" xmlns="http://www.w3.org/2000/svg">
<g clip-path="url(#clip0_2006_25652)">
<path d="M16 1.29614V14.9431C16 15.0977 15.9695 15.2507 15.9104 15.3934C15.8512 15.5362 15.7645 15.6658 15.6552 15.7751C15.5459 15.8843 15.4161 15.9709 15.2733 16.0299C15.1305 16.089 14.9775 16.1193 14.823 16.1191H1.176C0.864187 16.1189 0.565221 15.9949 0.344735 15.7744C0.12425 15.5539 0.000265235 15.255 4.25209e-07 14.9431V1.29614C-0.000130968 1.14162 0.0301902 0.988593 0.0892309 0.845798C0.148272 0.703004 0.234874 0.573245 0.344089 0.463937C0.453304 0.354629 0.58299 0.267916 0.725734 0.208754C0.868478 0.149592 1.02148 0.119141 1.176 0.119141H14.823C14.9776 0.11901 15.1307 0.149364 15.2736 0.208467C15.4164 0.26757 15.5462 0.354262 15.6556 0.463583C15.7649 0.572904 15.8516 0.702707 15.9107 0.845567C15.9698 0.988427 16.0001 1.14154 16 1.29614ZM4.706 6.23714H2.353V13.7671H4.706V6.23714ZM4.918 3.64914C4.91932 3.47112 4.88554 3.29457 4.8186 3.12961C4.75166 2.96464 4.65286 2.81449 4.52786 2.68772C4.40286 2.56095 4.2541 2.46006 4.09009 2.39082C3.92608 2.32157 3.75003 2.28532 3.572 2.28414H3.529C3.34975 2.28414 3.17225 2.31945 3.00664 2.38805C2.84103 2.45664 2.69055 2.55719 2.5638 2.68394C2.43705 2.81069 2.3365 2.96117 2.2679 3.12678C2.19931 3.29239 2.164 3.46989 2.164 3.64914C2.164 3.8284 2.19931 4.00589 2.2679 4.1715C2.3365 4.33711 2.43705 4.48759 2.5638 4.61434C2.69055 4.74109 2.84103 4.84164 3.00664 4.91024C3.17225 4.97883 3.34975 5.01414 3.529 5.01414C3.7072 5.01866 3.88455 4.98797 4.05087 4.92383C4.21719 4.8597 4.36922 4.76337 4.49825 4.64038C4.62728 4.51739 4.73078 4.37014 4.80281 4.20708C4.87483 4.04402 4.91398 3.86836 4.918 3.69014V3.65014V3.64914ZM13.648 9.19214C13.648 6.92914 12.208 6.04914 10.777 6.04914C10.3085 6.02549 9.84192 6.12515 9.42395 6.33818C9.00597 6.5512 8.65118 6.87014 8.395 7.26314H8.33V6.23714H6.118V13.7671H8.47V9.76114C8.4358 9.35104 8.56482 8.94402 8.82903 8.62851C9.09323 8.313 9.47127 8.1145 9.881 8.07614H9.971C10.719 8.07614 11.274 8.54614 11.274 9.73214V13.7651H13.627L13.647 9.19114L13.648 9.19214Z" fill="#02060C" fill-opacity="0.75"/>
</g>
<defs>
<clipPath id="clip0_2006_25652">
<rect width="16" height="17" fill="white"/>
</clipPath>
</defs>
</svg>
