<svg width="21" height="21" viewBox="0 0 21 21" fill="none" xmlns="http://www.w3.org/2000/svg">
<g clip-path="url(#clip0_2006_24546)">
<path d="M10.7272 19.3735C15.694 19.1811 19.5644 14.9987 19.372 10.0318C19.1796 5.06498 14.9972 1.19454 10.0304 1.38696C5.06353 1.57937 1.19309 5.76177 1.3855 10.7286C1.57792 15.6954 5.76032 19.5659 10.7272 19.3735Z" fill="url(#paint0_linear_2006_24546)"/>
<path d="M10.5735 13.2391C10.522 13.2114 10.4596 13.2138 10.4104 13.2454L7.86977 14.8768C7.49711 15.116 7.02031 14.7885 7.10998 14.3548L7.69847 11.5086C7.711 11.448 7.68767 11.3856 7.63848 11.3481L5.301 9.56575C4.94329 9.293 5.09956 8.72349 5.54637 8.6715L8.53461 8.32379C8.59394 8.31689 8.64455 8.27769 8.66608 8.22197L9.73127 5.46475C9.88926 5.0558 10.4596 5.0337 10.6488 5.42921L11.924 8.09576C11.9499 8.14964 12.0034 8.18481 12.063 8.1871L15.0692 8.30258C15.5187 8.31986 15.7186 8.87557 15.383 9.17518L13.1905 11.133C13.1442 11.1743 13.1259 11.2382 13.143 11.2977L13.9499 14.0899C14.0729 14.5153 13.6229 14.8787 13.2328 14.6691L10.5735 13.2391Z" fill="white"/>
</g>
<defs>
<linearGradient id="paint0_linear_2006_24546" x1="10.0304" y1="1.38696" x2="10.7272" y2="19.3735" gradientUnits="userSpaceOnUse">
<stop stop-color="#21973B"/>
<stop offset="1" stop-color="#128540"/>
</linearGradient>
<clipPath id="clip0_2006_24546">
<rect width="20" height="20" fill="white" transform="translate(0 0.774414) rotate(-2.21851)"/>
</clipPath>
</defs>
</svg>
