<svg width="15" height="15" viewBox="0 0 15 15" fill="none" xmlns="http://www.w3.org/2000/svg">
<g clip-path="url(#clip0_2006_24535)">
<path d="M13.9895 4.42341e-05L0 0.541992L0.541948 14.5315L14.5315 13.9896L13.9895 4.42341e-05Z" fill="white"/>
<path d="M5.82129 4.31085C6.30606 2.64096 6.54846 1.80602 7.05287 1.78648C7.55728 1.76694 7.86354 2.58062 8.47604 4.208L8.83761 5.16863L9.79109 5.13169C11.5953 5.0618 12.4974 5.02685 12.6714 5.50793C12.8455 5.98902 12.13 6.53945 10.6989 7.64031L9.97692 8.19567L10.3135 9.08982C10.9349 10.7411 11.2457 11.5666 10.8499 11.8842C10.4541 12.2018 9.71542 11.7197 8.238 10.7554L7.37859 10.1944L6.56515 10.8202C5.16676 11.8959 4.46756 12.4337 4.0484 12.1477C3.62925 11.8617 3.87518 11.0145 4.36705 9.32019L4.3856 9.2563C4.50501 8.84499 4.56471 8.63932 4.49588 8.45366C4.42705 8.268 4.24669 8.15027 3.88597 7.91483C2.36379 6.92132 1.6027 6.42457 1.73905 5.93145C1.87539 5.43834 2.77748 5.40339 4.58164 5.3335L5.53513 5.29656L5.82129 4.31085Z" fill="#1BA672"/>
</g>
<defs>
<clipPath id="clip0_2006_24535">
<rect width="14" height="14" fill="white" transform="translate(0 0.541992) rotate(-2.21851)"/>
</clipPath>
</defs>
</svg>
