<svg width="11" height="13" viewBox="0 0 11 13" fill="none" xmlns="http://www.w3.org/2000/svg">
<path d="M8.51561 8.37178L5.67973 11.0035L5.72734 12.2326L5.18586 12.2536L5.13599 10.9662L2.373 8.77487C2.26424 8.7157 2.1587 8.64918 2.05639 8.57531C1.95495 8.49362 1.86151 8.40717 1.77608 8.31596L1.60899 8.17065L1.54585 8.1264C1.27182 7.84791 1.03805 7.55174 0.84454 7.23788C0.644067 6.92541 0.491624 6.5994 0.387211 6.25985C0.322398 6.06666 0.273939 5.87284 0.241836 5.67838C0.209432 5.47615 0.189316 5.274 0.181488 5.07193C0.15667 4.43129 0.256779 3.82919 0.481813 3.26561C0.706847 2.70203 1.053 2.18436 1.52027 1.71258C1.55147 1.67246 1.58281 1.63566 1.61427 1.60219C1.65395 1.56952 1.69364 1.53685 1.73332 1.50418C1.75695 1.47991 1.78058 1.45565 1.80421 1.43138C1.83719 1.40675 1.86958 1.38215 1.90138 1.35756C2.33899 0.995907 2.81324 0.719564 3.32415 0.528532C3.84288 0.328301 4.3984 0.216713 4.99069 0.193768L5.38677 0.54203L5.01882 0.91989L4.99069 0.193768C5.58182 0.170868 6.14357 0.235282 6.67594 0.387009C7.20857 0.545399 7.70761 0.787929 8.17305 1.1146L8.37563 1.27021L8.58049 1.43907C9.08168 1.87333 9.46626 2.3627 9.73422 2.90718C10.0022 3.45166 10.1486 4.04421 10.1734 4.68484C10.1982 5.32436 10.0979 5.92203 9.87255 6.47783C9.64751 7.04141 9.30604 7.55891 8.84811 8.03032C8.79215 8.09587 8.73661 8.15695 8.68147 8.21357C8.61816 8.27051 8.56287 8.32325 8.51561 8.37178ZM5.20167 5.63968C5.43181 5.63077 5.62169 5.54891 5.7713 5.39412C5.92208 5.23927 5.9934 5.05693 5.98527 4.84709C5.9771 4.63614 5.89186 4.4593 5.72955 4.31659C5.56842 4.17383 5.37278 4.10691 5.14263 4.11583C4.92067 4.12443 4.7343 4.20615 4.58352 4.36099C4.42573 4.5161 4.35092 4.69913 4.35909 4.91009C4.36722 5.11993 4.45185 5.29623 4.61299 5.43899C4.78348 5.58138 4.9797 5.64828 5.20167 5.63968Z" fill="#A9ABB2"/>
</svg>
