<svg width="25" height="22" viewBox="0 0 25 22" fill="none" xmlns="http://www.w3.org/2000/svg">
<path d="M19.1851 1.93443H18.8259L18.4637 5.77832L18.4426 5.8211C18.4285 6.05128 18.4114 6.26313 18.3912 6.45665C18.3691 6.65017 18.3369 6.82536 18.2947 6.98221C18.2524 7.16962 18.192 7.35193 18.1136 7.52915C18.0371 7.70841 17.9134 7.87036 17.7423 8.01499C17.5874 8.17184 17.4173 8.28286 17.2322 8.34804C17.0491 8.41119 16.866 8.45702 16.6829 8.48554C16.5119 8.4998 16.3308 8.51101 16.1396 8.51915C15.9484 8.52526 15.7472 8.52832 15.5359 8.52832H13.2662C13.0106 8.52832 12.7692 8.52526 12.5418 8.51915C12.3164 8.51101 12.1122 8.49267 11.9291 8.46415C11.7158 8.43564 11.5035 8.38267 11.2922 8.30526C11.0789 8.22582 10.8878 8.08526 10.7187 7.8836C10.5477 7.69823 10.434 7.4986 10.3777 7.28471C10.3213 7.06878 10.2861 6.85388 10.272 6.63999C10.2579 6.45258 10.262 6.24073 10.2841 6.00443C10.3042 5.76814 10.3213 5.52165 10.3354 5.26499L10.6553 1.93443H9.97623C9.49532 1.93443 9.08483 1.93443 8.74477 1.93443C8.4047 1.93443 8.11495 1.95582 7.8755 1.9986C7.63403 2.02712 7.45293 2.06684 7.3322 2.11776C7.21348 2.16665 7.1179 2.22675 7.04546 2.29804C6.97504 2.35508 6.91165 2.44165 6.85531 2.55776C6.79897 2.67184 6.74263 2.84295 6.68629 3.0711C6.64403 3.31554 6.60479 3.60989 6.56857 3.95415C6.53437 4.29841 6.49613 4.71397 6.45388 5.20082L5.56046 16.2008C5.50412 16.7732 5.46589 17.2601 5.44577 17.6614C5.42363 18.0627 5.41961 18.4059 5.43369 18.6911C5.44778 18.9641 5.47997 19.1688 5.53028 19.3053C5.57857 19.4397 5.63793 19.5507 5.70836 19.6383C5.7808 19.7096 5.88342 19.7768 6.01622 19.84C6.15104 19.9052 6.35327 19.9592 6.6229 20.0019C6.90461 20.0304 7.24065 20.0488 7.63101 20.0569C8.01937 20.063 8.49626 20.0661 9.06169 20.0661H18.2735C18.7544 20.0661 19.1649 20.0661 19.505 20.0661C19.8431 20.0661 20.1328 20.0447 20.3743 20.0019C20.6157 19.9734 20.7958 19.9337 20.9145 19.8828C21.0353 19.8339 21.1309 19.7738 21.2013 19.7025C21.2717 19.6455 21.3361 19.5589 21.3945 19.4428C21.4508 19.3287 21.5071 19.1576 21.5635 18.9294C21.6057 18.685 21.644 18.3906 21.6782 18.0464C21.7144 17.7042 21.7536 17.2886 21.7959 16.7997L22.7074 5.79971C22.7517 5.2273 22.7839 4.74045 22.804 4.33915C22.8261 3.93786 22.8302 3.59462 22.8161 3.30943C22.802 3.03647 22.7698 2.83175 22.7195 2.69526C22.6692 2.56082 22.6088 2.4498 22.5384 2.36221C22.468 2.29091 22.3694 2.22369 22.2426 2.16054C22.1138 2.09536 21.9086 2.04138 21.6269 1.9986C21.3431 1.97008 21.0071 1.95175 20.6188 1.9436C20.2304 1.93749 19.7525 1.93443 19.1851 1.93443ZM17.1688 1.93443H12.2882L11.9713 5.37193C11.9432 5.65712 11.922 5.89647 11.9079 6.08999C11.8939 6.28351 11.8939 6.44545 11.9079 6.57582C11.9079 6.63286 11.911 6.67564 11.917 6.70415C11.925 6.73267 11.9291 6.75406 11.9291 6.76832C11.9291 6.76832 11.9291 6.77138 11.9291 6.77749C11.9291 6.78563 11.9291 6.78971 11.9291 6.78971C11.9291 6.78971 11.9321 6.78971 11.9381 6.78971C11.9462 6.78971 11.9502 6.78971 11.9502 6.78971C11.9643 6.78971 11.9854 6.79684 12.0136 6.8111C12.0418 6.82536 12.084 6.83249 12.1404 6.83249C12.2671 6.86101 12.4231 6.87526 12.6082 6.87526C12.7913 6.87526 13.0318 6.87526 13.3296 6.87526H15.4726C15.7261 6.87526 15.9313 6.87526 16.0883 6.87526C16.2432 6.87526 16.37 6.86813 16.4686 6.85388C16.5108 6.83962 16.5461 6.82841 16.5742 6.82026C16.6024 6.81415 16.6245 6.8111 16.6406 6.8111C16.6406 6.8111 16.6437 6.8111 16.6497 6.8111C16.6577 6.8111 16.6618 6.8111 16.6618 6.8111C16.6618 6.8111 16.6618 6.80702 16.6618 6.79888C16.6618 6.79276 16.6618 6.78971 16.6618 6.78971C16.6618 6.77545 16.6688 6.75712 16.6829 6.73471C16.697 6.71434 16.704 6.67563 16.704 6.6186C16.7322 6.51675 16.7533 6.38739 16.7674 6.23054C16.7815 6.07369 16.8026 5.87304 16.8308 5.6286L17.1688 1.93443ZM18.0834 0.27832H19.2484C19.7736 0.27832 20.2545 0.282394 20.6912 0.290543C21.1299 0.296654 21.5192 0.322117 21.8593 0.366931C22.2275 0.423968 22.5706 0.516654 22.8885 0.644987C23.2064 0.77332 23.4932 0.973968 23.7487 1.24693C23.9902 1.53212 24.1632 1.83971 24.2679 2.16971C24.3745 2.49971 24.4349 2.8511 24.449 3.22388C24.4631 3.58036 24.456 3.97758 24.4278 4.41554C24.3997 4.85147 24.3645 5.33527 24.3222 5.86693V5.9311L23.4077 16.9953C23.3795 17.4536 23.3443 17.8722 23.302 18.2511C23.2598 18.63 23.2105 18.9702 23.1541 19.2717C23.0837 19.5874 22.9851 19.8848 22.8583 20.1639C22.7295 20.4429 22.5454 20.6966 22.306 20.9247C22.0645 21.1549 21.7989 21.324 21.5092 21.4319C21.2194 21.5379 20.9115 21.6051 20.5856 21.6336C20.2898 21.6784 19.9537 21.7039 19.5774 21.71C19.2032 21.7181 18.7897 21.7222 18.3369 21.7222H9.01943C8.48217 21.7222 7.99422 21.7181 7.55556 21.71C7.1169 21.7039 6.72754 21.6784 6.38747 21.6336C6.02125 21.5766 5.67817 21.4839 5.35823 21.3555C5.04031 21.2272 4.75458 21.0266 4.50104 20.7536C4.25957 20.4684 4.08552 20.1608 3.97887 19.8308C3.87424 19.5008 3.81488 19.1494 3.80079 18.7767C3.78671 18.5628 3.78268 18.3377 3.78872 18.1014C3.79677 17.8651 3.80784 17.6033 3.82192 17.3161H1.63365C1.40829 17.3161 1.21411 17.2377 1.05112 17.0808C0.888135 16.924 0.806641 16.7304 0.806641 16.5003C0.806641 16.2721 0.888135 16.0786 1.05112 15.9197C1.21411 15.7629 1.40829 15.6844 1.63365 15.6844H3.96982L4.83909 5.00526C4.86726 4.54693 4.90247 4.12832 4.94473 3.74943C4.98698 3.37054 5.03729 3.03036 5.09564 2.72888C5.16607 2.41314 5.26467 2.11573 5.39144 1.83665C5.5182 1.55758 5.70232 1.30397 5.94378 1.07582C6.18324 0.845635 6.44784 0.676561 6.7376 0.568598C7.02937 0.462672 7.33723 0.39545 7.6612 0.366931C7.959 0.322117 8.29504 0.296654 8.66931 0.290543C9.04559 0.282394 9.4601 0.27832 9.91285 0.27832H18.0834ZM0.806641 12.0972C0.806641 11.867 0.888135 11.6735 1.05112 11.5167C1.21411 11.3578 1.40829 11.2783 1.63365 11.2783H2.71722C2.9446 11.2783 3.13576 11.3578 3.2907 11.5167C3.44564 11.6735 3.52311 11.867 3.52311 12.0972C3.52311 12.3254 3.44564 12.5219 3.2907 12.6869C3.13576 12.8519 2.9446 12.9344 2.71722 12.9344H1.63365C1.40829 12.9344 1.21411 12.8519 1.05112 12.6869C0.888135 12.5219 0.806641 12.3254 0.806641 12.0972Z" fill="#93959F"/>
</svg>
