<svg width="10" height="17" viewBox="0 0 10 17" fill="none" xmlns="http://www.w3.org/2000/svg">
<path d="M8.32205 5.64513L8.28059 4.57482L7.25122 4.6147C7.14008 4.04302 6.87089 3.53973 6.48085 3.10784L8.22115 3.04042L8.16661 1.63259L0.951172 1.91211L1.00571 3.31994L3.61739 3.21877C4.56466 3.29326 5.31644 3.87349 5.58005 4.67944L1.06515 4.85435L1.10662 5.92465L5.62151 5.74975C5.40686 6.65429 4.57822 7.34466 3.53157 7.38521L1.16675 7.47682L1.2187 8.81804L3.19104 8.74163L6.14894 12.9192L7.9781 12.8483L4.88938 8.48459C6.17172 8.01904 7.12627 6.94128 7.29269 5.68501L8.32205 5.64513Z" fill="#02060C" fill-opacity="0.92"/>
</svg>
