<svg width="11" height="11" viewBox="0 0 11 11" fill="none" xmlns="http://www.w3.org/2000/svg">
<path d="M4.09864 2.52471C4.58341 0.854827 4.8258 0.019888 5.33021 0.000347298C5.83462 -0.0191934 6.14088 0.794491 6.75339 2.42187L7.11495 3.38249L8.06844 3.34556C9.87261 3.27566 10.7747 3.24072 10.9488 3.7218C11.1228 4.20289 10.4073 4.75331 8.97625 5.85417L8.25427 6.40954L8.59081 7.30369C9.21226 8.95492 9.52305 9.78051 9.12725 10.0981C8.73147 10.4156 7.99277 9.93356 6.51534 8.96923L5.65593 8.4083L4.84249 9.03404C3.4441 10.1098 2.7449 10.6475 2.32575 10.3616C1.90659 10.0756 2.15252 9.22841 2.64439 7.53405L2.66294 7.47017C2.78235 7.05886 2.84205 6.85319 2.77322 6.66753C2.7044 6.48186 2.52403 6.36414 2.16331 6.12869C0.641129 5.13518 -0.119961 4.63843 0.0163923 4.14532C0.152736 3.65221 1.05482 3.61726 2.85899 3.54737L3.81247 3.51043L4.09864 2.52471Z" fill="#116649"/>
</svg>
